<?xml version="1.0" standalone="no"?>
<svg xmlns="http://www.w3.org/2000/svg" viewBox="137 49 2057 286" width="1200" height="630">
<g transform="translate(0.000000,566.000000) scale(0.100000,-0.100000)"
fill="#FFFFFF" stroke="none">
<path d="M14729 4795 c-78 -21 -140 -57 -201 -117 -69 -66 -96 -122 -133 -268
-14 -58 -51 -197 -81 -310 -29 -113 -62 -245 -73 -295 -57 -270 -126 -561
-161 -687 -48 -170 -83 -372 -78 -446 6 -65 28 -97 96 -138 l51 -31 83 -6 c46
-4 216 -7 378 -7 364 0 419 10 523 93 64 52 89 120 162 446 19 85 35 160 35
168 0 18 -363 19 -378 1 -9 -12 -40 -130 -62 -235 -5 -23 -16 -57 -24 -76
l-14 -34 -123 -7 c-138 -7 -239 -3 -259 9 -15 9 -10 65 19 185 11 47 29 130
41 185 26 118 51 227 119 505 27 113 61 264 76 335 44 210 83 336 112 368 l27
27 187 0 187 0 11 -14 c10 -12 7 -39 -13 -128 -14 -62 -30 -129 -36 -148 -18
-63 -24 -61 143 -59 83 0 167 4 186 7 l34 7 42 165 c23 91 51 197 63 235 12
39 24 96 28 127 l7 56 -23 37 c-13 21 -38 44 -56 51 l-33 14 -408 -1 c-297 -1
-421 -4 -454 -14z"/>
<path d="M17096 4801 l-419 -6 -18 -65 c-28 -96 -38 -141 -59 -264 -11 -61
-25 -133 -30 -161 -6 -27 -20 -97 -31 -155 -11 -58 -24 -125 -29 -150 -16 -83
-57 -263 -148 -650 -83 -350 -172 -765 -176 -815 l-1 -20 491 -3 c386 -2 494
1 502 10 13 17 85 305 79 321 -3 9 -70 12 -277 13 l-272 0 -12 17 c-10 12 -8
36 11 114 12 54 37 159 54 233 17 74 42 172 56 218 l24 82 108 0 c59 0 169 3
244 7 l136 6 15 46 c19 57 66 242 66 258 0 10 -57 13 -236 15 l-237 3 -10 16
c-8 12 -1 59 22 170 36 168 95 397 106 407 4 4 138 9 298 12 l292 5 12 38 c19
58 64 289 58 296 -8 8 -140 8 -619 2z"/>
<path d="M17946 4801 c-10 -15 -65 -242 -72 -292 l-7 -49 175 0 176 0 12 -16
13 -15 -18 -97 c-16 -90 -36 -173 -143 -597 -22 -88 -59 -239 -81 -335 -22
-96 -61 -260 -86 -365 -73 -303 -115 -487 -118 -515 l-2 -15 192 0 c105 0 195
3 198 7 7 6 84 295 105 388 4 19 26 105 49 190 23 85 55 211 70 280 16 69 42
179 59 245 16 66 40 165 52 220 64 295 128 564 141 590 l14 30 187 3 188 2 14
28 c15 28 70 221 81 285 l7 37 -600 0 c-331 0 -603 -4 -606 -9z"/>
<path d="M19384 4796 c-6 -15 27 -565 47 -786 5 -63 14 -176 20 -250 5 -74 16
-211 25 -305 l15 -170 -32 -135 c-17 -74 -48 -198 -69 -275 -46 -168 -84 -351
-75 -365 10 -16 370 -13 383 3 13 16 45 126 88 301 35 140 90 351 120 456 18
60 106 234 222 435 130 226 243 426 304 540 62 114 186 332 268 470 27 44 45
83 41 87 -4 4 -100 5 -214 1 l-207 -6 -25 -54 c-14 -29 -39 -75 -54 -102 -57
-96 -233 -431 -313 -593 -35 -73 -63 -118 -72 -118 -37 0 -39 31 -31 453 l7
409 -13 9 c-8 5 -108 9 -222 9 l-208 0 -5 -14z"/>
<path d="M11625 4790 l-330 -5 -19 -66 c-11 -39 -16 -76 -12 -90 4 -13 36 -48
71 -77 36 -29 65 -61 65 -71 0 -9 -18 -35 -40 -56 -47 -46 -70 -111 -120 -340
-17 -77 -37 -165 -45 -195 -73 -279 -64 -342 55 -386 l45 -17 302 -5 c235 -3
305 -7 314 -18 10 -13 5 -40 -82 -419 -30 -126 -48 -174 -71 -186 -11 -6 -97
-11 -208 -12 l-189 -2 -17 17 -17 17 31 123 c18 68 32 129 32 136 0 10 -41 12
-187 10 l-187 -3 -27 -110 c-15 -60 -39 -150 -53 -200 -15 -49 -29 -121 -32
-160 l-6 -70 24 -35 c13 -19 43 -45 68 -57 l44 -23 416 0 c440 0 455 2 550 50
58 30 133 102 153 147 10 21 44 144 77 273 32 129 68 269 78 310 11 41 37 154
57 250 l38 176 -18 37 c-28 60 -57 74 -180 86 -61 6 -208 14 -328 17 l-218 7
-26 20 -25 20 5 41 c13 99 107 469 123 487 l17 19 206 -2 206 -3 -1 -45 c0
-25 -5 -74 -11 -110 -6 -36 -10 -66 -8 -68 7 -8 315 -13 350 -5 l39 9 8 29
c36 146 82 371 86 421 l4 61 -36 31 c-20 17 -53 35 -73 41 -40 9 -347 10 -898
1z"/>
<path d="M13158 4784 c-74 -23 -198 -111 -231 -165 -17 -28 -42 -100 -62 -175
-18 -71 -38 -140 -43 -154 -6 -14 -15 -45 -21 -70 -5 -25 -24 -99 -40 -165
-16 -66 -44 -183 -61 -260 -17 -77 -35 -151 -40 -165 -23 -66 -114 -436 -140
-572 -16 -84 -41 -202 -56 -263 -39 -168 -25 -214 84 -269 l51 -26 424 0 423
0 52 15 c97 29 186 95 222 165 20 39 52 158 100 365 17 77 40 169 50 205 35
124 118 456 140 555 12 55 30 132 41 170 10 39 26 106 34 150 9 44 31 143 50
220 18 77 36 154 39 170 l7 30 -188 3 -188 3 -25 18 c-14 10 -27 27 -29 37 -2
10 -14 34 -27 54 -13 19 -24 47 -24 62 0 15 -4 38 -10 52 l-10 26 -237 -1
c-178 0 -250 -4 -285 -15z m556 -337 c22 -16 21 -26 -21 -187 -17 -63 -34
-133 -37 -155 -9 -52 -54 -243 -171 -730 -104 -430 -117 -481 -131 -502 l-14
-23 -204 0 c-113 0 -211 3 -220 6 -30 11 -41 -42 229 1046 19 75 44 183 55
240 42 207 79 295 130 309 14 4 102 7 196 8 127 1 175 -2 188 -12z"/>
<path d="M13759 4796 c-7 -8 6 -134 14 -143 5 -4 100 -9 212 -10 l203 -2 13
15 c16 20 -4 88 -36 120 l-24 24 -189 0 c-104 0 -191 -2 -193 -4z"/>
<path d="M15997 4793 c-2 -5 -18 -66 -36 -138 -17 -71 -48 -195 -68 -275 -19
-80 -46 -193 -59 -252 -12 -60 -30 -134 -39 -165 -23 -78 -77 -300 -126 -518
-57 -256 -99 -434 -114 -480 -19 -58 -97 -446 -91 -452 5 -5 388 -4 393 1 5 5
82 307 108 426 36 160 99 428 157 669 27 112 67 289 88 395 39 188 56 258 120
486 59 213 59 248 0 288 l-33 22 -148 0 c-81 0 -150 -3 -152 -7z"/>
<path d="M8508 4782 l-197 -2 -69 -133 c-38 -72 -108 -204 -155 -292 -232
-433 -242 -450 -261 -450 l-20 0 3 438 3 437 -216 0 -216 0 0 -52 c0 -59 25
-395 40 -533 5 -49 12 -144 15 -210 3 -66 10 -158 15 -205 5 -47 16 -176 24
-288 l15 -202 -13 -38 c-17 -47 -67 -232 -91 -332 -10 -41 -40 -153 -66 -249
-27 -95 -49 -177 -49 -182 0 -6 88 -8 207 -7 l207 3 24 95 c23 95 173 644 194
710 6 19 44 94 86 165 169 292 177 307 437 780 160 291 261 469 287 507 10 14
18 28 18 31 0 11 -32 12 -222 9z"/>
<path d="M2879 4772 c-17 -3 -49 -96 -49 -139 0 -22 53 -75 113 -111 48 -30
49 -60 2 -115 -24 -27 -43 -66 -56 -112 -11 -38 -29 -95 -39 -125 -63 -186
-138 -527 -126 -573 10 -41 53 -84 104 -103 l47 -18 305 -5 c168 -3 311 -10
318 -14 22 -15 15 -58 -55 -332 -14 -55 -33 -135 -43 -178 -9 -43 -24 -85 -31
-93 -20 -19 -394 -33 -427 -15 -29 15 -28 40 3 170 20 83 23 106 13 113 -7 4
-91 8 -186 8 l-172 0 -10 -25 c-25 -66 -110 -422 -110 -462 0 -25 7 -57 16
-72 19 -32 69 -68 112 -80 49 -15 837 -16 897 -2 120 29 215 113 257 228 14
37 44 145 67 238 23 94 57 233 75 310 19 77 48 193 65 259 l31 118 -11 41 c-6
22 -23 52 -38 67 -48 49 -110 59 -412 68 -280 9 -309 14 -328 51 -13 24 82
455 108 491 25 34 59 39 254 37 l169 -2 15 -20 c10 -14 13 -33 8 -65 -3 -25
-9 -66 -12 -93 l-6 -47 189 2 188 3 38 145 c86 326 87 352 29 411 -50 49 -68
51 -705 47 -325 -1 -598 -4 -607 -6z"/>
<path d="M4520 4770 c-10 -6 -84 -254 -94 -315 l-7 -40 173 -4 c100 -1 178 -7
186 -13 6 -6 12 -21 12 -33 0 -38 -40 -224 -67 -315 -14 -47 -39 -139 -55
-205 -101 -405 -150 -599 -159 -623 -11 -28 -120 -465 -159 -634 -12 -53 -19
-101 -16 -107 7 -11 230 -13 326 -3 l64 7 47 185 c25 102 63 248 83 325 20 77
50 190 66 250 15 61 38 153 50 205 12 52 48 192 80 310 32 118 79 298 105 400
25 102 53 201 63 220 l17 35 188 3 188 2 10 28 c20 49 87 317 82 325 -6 9
-1168 6 -1183 -3z"/>
<path d="M5927 4773 c-2 -5 -12 -31 -21 -60 -21 -64 -18 -71 69 -148 38 -33
65 -64 63 -73 -2 -9 -37 -39 -78 -66 -41 -28 -80 -62 -87 -76 -13 -27 -72
-250 -158 -600 -31 -124 -62 -250 -71 -280 -57 -207 -119 -452 -149 -595 -15
-71 -43 -186 -61 -255 -19 -68 -30 -128 -26 -132 5 -5 96 -7 202 -6 l193 3 38
150 c20 83 51 200 67 260 17 61 40 146 52 190 52 192 90 318 101 331 18 21 86
18 98 -5 6 -10 22 -85 37 -167 14 -82 30 -171 35 -199 4 -27 22 -138 39 -245
17 -107 37 -222 43 -255 l12 -60 204 -3 204 -2 -7 37 c-10 57 -71 481 -102
712 l-28 204 19 13 c10 8 29 14 42 14 58 0 170 59 240 126 41 39 74 143 168
519 30 121 72 285 94 365 22 80 41 158 41 173 0 45 -26 95 -62 117 l-33 20
-587 0 c-323 0 -589 -3 -591 -7z m692 -350 c48 -5 66 -11 76 -27 16 -25 17
-21 -65 -346 -44 -175 -67 -251 -82 -267 l-21 -23 -178 0 c-98 0 -184 3 -193
6 -22 9 -20 49 9 162 47 187 75 310 75 334 0 17 -8 29 -26 37 -45 20 -94 63
-94 81 0 33 25 39 156 43 71 1 163 4 205 5 42 1 104 -1 138 -5z"/>
<path d="M8935 4768 c-4 -16 -22 -175 -30 -278 -6 -78 -46 -488 -65 -670 -6
-58 -20 -172 -30 -255 -10 -82 -24 -206 -30 -275 -9 -108 -32 -315 -70 -641
-6 -47 -10 -101 -10 -121 l0 -35 38 -7 c84 -14 452 -1 452 16 0 5 33 75 74
157 40 81 117 244 171 362 53 118 101 219 106 225 5 6 40 80 78 165 38 85 101
224 141 309 40 85 85 182 100 215 29 62 141 294 282 585 77 157 118 247 118
256 0 2 -90 4 -199 4 l-200 0 -19 -27 c-10 -16 -45 -86 -77 -158 -33 -71 -94
-199 -137 -282 -43 -84 -89 -181 -102 -215 -13 -35 -40 -99 -61 -143 -20 -44
-45 -101 -56 -127 -10 -26 -36 -82 -57 -125 -22 -43 -56 -121 -77 -173 -56
-143 -76 -180 -97 -180 -28 0 -31 20 -13 106 9 44 24 144 35 224 10 80 26 195
35 255 48 325 61 420 75 545 6 52 16 139 23 193 7 54 11 100 8 102 -2 3 -94 5
-203 5 -150 0 -200 -3 -203 -12z"/>
</g>
</svg>
